<svg width="85" height="85" viewBox="0 0 85 85" fill="none" xmlns="http://www.w3.org/2000/svg">
<path d="M41.3774 52.5897C39.6626 52.0954 38.8018 50.7319 39.0006 48.5333C39.0602 47.8749 39.6449 47.3892 40.3066 47.4485C40.9683 47.5078 41.4564 48.0895 41.3969 48.748C41.2821 50.0169 41.5335 50.3021 42.6381 50.3908C43.4183 50.4535 43.8252 50.003 43.8252 49.0413C43.8252 47.983 43.456 47.4886 42.6255 47.4106C40.4368 47.2051 38.9958 45.7896 38.9958 43.736C38.9958 42.7061 39.1604 41.8643 39.6094 41.1571C39.9904 40.557 40.5382 40.1349 41.227 39.9071V38.9622C41.227 38.3011 41.7656 37.7652 42.43 37.7652C43.0943 37.7652 43.6329 38.3011 43.6329 38.9622V39.852C44.9629 40.228 45.7272 41.3337 45.7272 42.9448C45.7272 43.6059 45.1886 44.1418 44.5242 44.1418C43.8598 44.1418 43.3212 43.6059 43.3212 42.9448C43.3212 42.2391 43.19 42.1043 42.5413 42.1043C41.642 42.1043 41.4017 42.4827 41.4017 43.736C41.4017 44.4958 41.8468 44.9329 42.8515 45.0273C45.032 45.2321 46.2311 46.8376 46.2311 49.0413C46.2311 50.8301 45.3019 52.2363 43.7833 52.6597V53.6251C43.7833 54.2862 43.2447 54.8221 42.5803 54.8221C41.9159 54.8221 41.3774 54.2862 41.3774 53.6251V52.5897ZM32.5055 49.7349V43.6005H12.2054C11.541 43.6005 11.0024 43.0646 11.0024 42.4035C11.0024 41.7424 11.541 41.2065 12.2054 41.2065H32.5055V35.0132H12.2054C11.1269 35.0132 10.5933 33.7099 11.3647 32.96L19.443 25.1076C20.1734 24.3976 21.154 24.0001 22.1751 24.0001H45.8727C45.8826 24 45.8925 24 45.9024 24.0001H62.5475C63.5885 24.0001 64.5865 24.4132 65.3204 25.1479L73.1365 32.9724C73.8908 33.7275 73.3532 35.0132 72.2833 35.0132H52.9103V41.2065H72.6545C73.3189 41.2065 73.8575 41.7424 73.8575 42.4035C73.8575 43.0646 73.3189 43.6005 72.6545 43.6005H52.9103V49.7349H72.6375C73.3019 49.7349 73.8405 50.2708 73.8405 50.9319C73.8405 51.593 73.3019 52.1289 72.6375 52.1289H52.9103V58.413H72.6545C73.3189 58.413 73.8575 58.9489 73.8575 59.6099C73.8575 60.271 73.3189 60.8069 72.6545 60.8069H52.0191C51.9196 60.8334 51.8151 60.8475 51.7073 60.8475C51.5995 60.8475 51.495 60.8334 51.3955 60.8069H12.2054C11.541 60.8069 11.0024 60.271 11.0024 59.6099C11.0024 58.9489 11.541 58.413 12.2054 58.413H32.5055V52.1289H12.2054C11.541 52.1289 11.0024 51.593 11.0024 50.9319C11.0024 50.2708 11.541 49.7349 12.2054 49.7349H32.5055ZM34.9114 58.413H50.5043V35.0132H34.9114V58.413ZM49.7611 32.6192L45.2712 26.394H40.5691C40.5494 26.4278 40.5279 26.461 40.5045 26.4934L36.0863 32.6192H49.7611ZM52.7204 32.6192H69.3915L63.614 26.8355C63.3317 26.5529 62.9478 26.394 62.5475 26.394H48.2326L52.6846 32.5669C52.697 32.584 52.7089 32.6015 52.7204 32.6192ZM33.125 32.6192L37.6148 26.394H22.1751C21.7823 26.394 21.4052 26.5469 21.1243 26.82L15.1582 32.6192H33.125Z" fill="white" fill-opacity="0.85"/>
</svg>
