<svg width="35" height="35" viewBox="0 0 35 35" fill="none" xmlns="http://www.w3.org/2000/svg">
<path d="M23.5416 7.60555C23.5416 8.00194 23.2161 8.32328 22.8145 8.32328C22.4129 8.32328 22.0874 8.00194 22.0874 7.60555C22.0874 6.34741 23.1207 5.32749 24.3953 5.32749H25.5531C26.9586 5.32749 28.098 6.45218 28.098 7.83955V12.2165C28.098 12.6129 27.7725 12.9342 27.3709 12.9342C26.9693 12.9342 26.6438 12.6129 26.6438 12.2165V7.83955C26.6438 7.24496 26.1554 6.76295 25.5531 6.76295H24.3953C23.9238 6.76295 23.5416 7.1402 23.5416 7.60555ZM30.9809 17.1445C31.2682 17.4215 31.2736 17.8759 30.993 18.1594C30.7124 18.443 30.2521 18.4484 29.9648 18.1714L18.0569 6.69082C17.7 6.34664 17.1286 6.35092 16.777 6.70042L5.24305 18.1637C4.96007 18.445 4.49968 18.4465 4.21474 18.1672C3.9298 17.8879 3.92822 17.4334 4.21121 17.1522L15.7451 5.68889C16.6594 4.78019 18.1449 4.76905 19.0731 5.66392L30.9809 17.1445ZM26.682 17.7084C26.682 17.312 27.0075 16.9906 27.4091 16.9906C27.8107 16.9906 28.1362 17.312 28.1362 17.7084V27.8674C28.1362 29.1556 27.0782 30.2 25.7731 30.2H22.3085C21.0034 30.2 19.9454 29.1556 19.9454 27.8674V23.1859C19.9454 22.6904 19.5384 22.2887 19.0365 22.2887H16.1569C15.6549 22.2887 15.248 22.6904 15.248 23.1859V27.8674C15.248 29.1556 14.1899 30.2 12.8848 30.2H9.2717C7.96655 30.2 6.90852 29.1556 6.90852 27.8674V17.7084C6.90852 17.312 7.23407 16.9906 7.63565 16.9906C8.03724 16.9906 8.36279 17.312 8.36279 17.7084V27.8674C8.36279 28.3629 8.76972 28.7645 9.2717 28.7645H12.8848C13.3868 28.7645 13.7937 28.3629 13.7937 27.8674V23.1859C13.7937 21.8976 14.8517 20.8533 16.1569 20.8533H19.0365C20.3416 20.8533 21.3996 21.8976 21.3996 23.1859V27.8674C21.3996 28.3629 21.8066 28.7645 22.3085 28.7645H25.7731C26.2751 28.7645 26.682 28.3629 26.682 27.8674V17.7084Z" fill="white" fill-opacity="0.85"/>
</svg>
