<svg width="85" height="85" viewBox="0 0 85 85" fill="none" xmlns="http://www.w3.org/2000/svg">
<path d="M35.9025 66.1488H40.6595V20.2147C40.6595 19.3194 39.7974 18.5937 38.7339 18.5937H20.0066C18.9431 18.5937 18.081 19.3194 18.081 20.2147V64.5278C18.081 65.4231 18.9431 66.1488 20.0066 66.1488H23.4727V59.9301C23.4727 57.6024 25.7142 55.7155 28.4793 55.7155H30.8959C33.661 55.7155 35.9025 57.6024 35.9025 59.9301V66.1488ZM32.8215 66.1488V59.9301C32.8215 59.0349 31.9594 58.3091 30.8959 58.3091H28.4793C27.4158 58.3091 26.5537 59.0349 26.5537 59.9301V66.1488H32.8215ZM43.7405 66.1488H64.3934C65.4569 66.1488 66.319 65.4231 66.319 64.5278V45.4305C66.319 44.7788 65.8554 44.1904 65.1421 43.937L47.7027 37.7413C46.9189 37.4628 46.5516 36.7021 46.8824 36.0423C47.2132 35.3824 48.1168 35.0732 48.9006 35.3517L66.34 41.5474C68.1945 42.2063 69.4 43.736 69.4 45.4305V64.5278C69.4 66.8555 67.1585 68.7425 64.3934 68.7425H20.0066C17.2415 68.7425 15 66.8555 15 64.5278V20.2147C15 17.887 17.2415 16 20.0066 16H38.7339C41.499 16 43.7405 17.887 43.7405 20.2147V66.1488ZM23.4727 25.5641C22.6219 25.5641 21.9322 24.9835 21.9322 24.2673C21.9322 23.5511 22.6219 22.9705 23.4727 22.9705H35.4555C36.3063 22.9705 36.996 23.5511 36.996 24.2673C36.996 24.9835 36.3063 25.5641 35.4555 25.5641H23.4727ZM23.4727 33.5072C22.6219 33.5072 21.9322 32.9266 21.9322 32.2104C21.9322 31.4942 22.6219 30.9136 23.4727 30.9136H35.4555C36.3063 30.9136 36.996 31.4942 36.996 32.2104C36.996 32.9266 36.3063 33.5072 35.4555 33.5072H23.4727ZM23.4727 41.2882C22.6219 41.2882 21.9322 40.7076 21.9322 39.9914C21.9322 39.2752 22.6219 38.6945 23.4727 38.6945H35.4555C36.3063 38.6945 36.996 39.2752 36.996 39.9914C36.996 40.7076 36.3063 41.2882 35.4555 41.2882H23.4727ZM23.4727 48.9071C22.6219 48.9071 21.9322 48.3265 21.9322 47.6103C21.9322 46.894 22.6219 46.3134 23.4727 46.3134H35.4555C36.3063 46.3134 36.996 46.894 36.996 47.6103C36.996 48.3265 36.3063 48.9071 35.4555 48.9071H23.4727ZM58.7114 62.6859C57.8607 62.6859 57.171 62.1053 57.171 61.3891C57.171 60.6729 57.8607 60.0923 58.7114 60.0923H62.7915C63.6423 60.0923 64.332 60.6729 64.332 61.3891C64.332 62.1053 63.6423 62.6859 62.7915 62.6859H58.7114ZM48.6982 62.6859C47.8475 62.6859 47.1578 62.1053 47.1578 61.3891C47.1578 60.6729 47.8475 60.0923 48.6982 60.0923H52.7783C53.6291 60.0923 54.3188 60.6729 54.3188 61.3891C54.3188 62.1053 53.6291 62.6859 52.7783 62.6859H48.6982ZM58.7114 57.3365C57.8607 57.3365 57.171 56.7559 57.171 56.0397C57.171 55.3234 57.8607 54.7428 58.7114 54.7428H62.7915C63.6423 54.7428 64.332 55.3234 64.332 56.0397C64.332 56.7559 63.6423 57.3365 62.7915 57.3365H58.7114ZM48.6982 57.3365C47.8475 57.3365 47.1578 56.7559 47.1578 56.0397C47.1578 55.3234 47.8475 54.7428 48.6982 54.7428H52.7783C53.6291 54.7428 54.3188 55.3234 54.3188 56.0397C54.3188 56.7559 53.6291 57.3365 52.7783 57.3365H48.6982ZM58.7114 51.9871C57.8607 51.9871 57.171 51.4064 57.171 50.6902C57.171 49.974 57.8607 49.3934 58.7114 49.3934H62.7915C63.6423 49.3934 64.332 49.974 64.332 50.6902C64.332 51.4064 63.6423 51.9871 62.7915 51.9871H58.7114ZM48.6982 51.9871C47.8475 51.9871 47.1578 51.4064 47.1578 50.6902C47.1578 49.974 47.8475 49.3934 48.6982 49.3934H52.7783C53.6291 49.3934 54.3188 49.974 54.3188 50.6902C54.3188 51.4064 53.6291 51.9871 52.7783 51.9871H48.6982ZM48.6982 46.6376C47.8475 46.6376 47.1578 46.057 47.1578 45.3408C47.1578 44.6246 47.8475 44.044 48.6982 44.044H52.7783C53.6291 44.044 54.3188 44.6246 54.3188 45.3408C54.3188 46.057 53.6291 46.6376 52.7783 46.6376H48.6982Z" fill="white" fill-opacity="0.85"/>
</svg>
