<svg width="85" height="85" viewBox="0 0 85 85" fill="none" xmlns="http://www.w3.org/2000/svg">
<path d="M46.3921 28.1611L38.8618 20.6308L27.6414 32.0357L35.1717 39.566L46.3921 28.1611ZM48.4707 29.9825L45.383 33.121L68.2649 56.0029C69.8816 57.6196 69.8824 60.24 68.2666 61.8558C66.6508 63.4715 64.0304 63.4708 62.4138 61.8541L39.5795 39.0199L36.9609 41.6815C37.5887 43.0502 37.3394 44.7221 36.2128 45.8487C34.7653 47.2961 32.4179 47.2955 30.9696 45.8472L22.0003 36.8779C20.552 35.4296 20.5514 33.0822 21.9988 31.6348C22.8682 30.7654 24.0622 30.4184 25.191 30.5937C25.203 30.5806 25.2153 30.5676 25.2279 30.5548L37.4924 18.0886C37.3817 17.0168 37.7368 15.9062 38.5578 15.0852C40.0053 13.6377 42.3527 13.6384 43.801 15.0866L52.7703 24.0559C54.2185 25.5042 54.2192 27.8516 52.7717 29.2991C51.6081 30.4627 49.8628 30.6905 48.4707 29.9825ZM15 67.8709V60.1566C15 57.6812 17.0079 55.6744 19.4847 55.6744H46.8994C49.3763 55.6744 51.3842 57.6812 51.3842 60.1566V67.8709C51.3842 68.6325 50.7663 69.25 50.0042 69.25H16.3799C15.6178 69.25 15 68.6325 15 67.8709ZM48.6243 66.4917V60.1566C48.6243 59.2045 47.8521 58.4327 46.8994 58.4327H19.4847C18.5321 58.4327 17.7598 59.2045 17.7598 60.1566V66.4917H48.6243ZM43.5143 35.1531L41.5639 37.1035L64.3642 59.9037C64.9031 60.4426 65.7765 60.4428 66.3151 59.9043C66.8537 59.3657 66.8534 58.4922 66.3146 57.9533L43.5143 35.1531ZM41.8506 17.037C41.4801 16.6665 40.8796 16.6664 40.5093 17.0366C40.139 17.4069 40.1392 18.0074 40.5097 18.3779L49.479 27.3472C49.8495 27.7177 50.45 27.7179 50.8203 27.3476C51.1905 26.9773 51.1904 26.3768 50.8199 26.0063L41.8506 17.037ZM25.2916 33.5866C24.9211 33.2161 24.3206 33.216 23.9503 33.5863C23.58 33.9565 23.5802 34.557 23.9507 34.9275L32.92 43.8968C33.2905 44.2673 33.891 44.2675 34.2613 43.8972C34.6315 43.5269 34.6314 42.9264 34.2609 42.5559L25.2916 33.5866Z" fill="white" fill-opacity="0.85"/>
</svg>
