<svg width="85" height="85" viewBox="0 0 85 85" fill="none" xmlns="http://www.w3.org/2000/svg">
<path d="M40.9662 56.2714C38.7991 55.6662 37.2096 53.6793 37.2096 51.3215C37.2096 48.4832 39.513 46.1823 42.3544 46.1823C45.1959 46.1823 47.4993 48.4832 47.4993 51.3215C47.4993 53.7381 45.8294 55.7651 43.5794 56.3141V59.0848C43.5794 59.8056 42.9944 60.3899 42.2728 60.3899C41.5512 60.3899 40.9662 59.8056 40.9662 59.0848V56.2714ZM29.3531 35.2514H57.046C59.3913 35.2514 61.2925 37.1506 61.2925 39.4933V64.5007C61.2925 66.8434 59.3913 68.7425 57.046 68.7425H27.2465C24.9012 68.7425 23 66.8434 23 64.5007V39.4933C23 37.327 24.6257 35.5399 26.725 35.2831C26.4931 33.2151 26.5681 30.8353 26.943 28.1398C27.3374 25.3045 29.0049 22.3 31.5051 20.0278C34.3154 17.4739 37.9568 16 42.0249 16C47.451 16 51.5617 18.162 54.2942 21.8517C56.3222 24.5902 57.4417 28.0825 57.4566 30.6934C57.4607 31.4142 56.879 32.0019 56.1574 32.006C55.4358 32.0101 54.8475 31.429 54.8434 30.7082C54.8316 28.6411 53.8851 25.6887 52.1932 23.4041C49.9437 20.3665 46.6046 18.6104 42.0249 18.6104C38.6226 18.6104 35.6034 19.8324 33.2637 21.9586C31.2022 23.8322 29.8389 26.2885 29.5314 28.499C29.1677 31.1142 29.1109 33.3666 29.3531 35.2514ZM27.2465 37.8618C26.3445 37.8618 25.6133 38.5922 25.6133 39.4933V64.5007C25.6133 65.4017 26.3445 66.1321 27.2465 66.1321H57.046C57.948 66.1321 58.6792 65.4017 58.6792 64.5007V39.4933C58.6792 38.5922 57.948 37.8618 57.046 37.8618H27.2465ZM42.3544 53.8503C43.7526 53.8503 44.886 52.7181 44.886 51.3215C44.886 49.9249 43.7526 48.7927 42.3544 48.7927C40.9563 48.7927 39.8229 49.9249 39.8229 51.3215C39.8229 52.7181 40.9563 53.8503 42.3544 53.8503Z" fill="white" fill-opacity="0.85"/>
</svg>
