<svg width="35" height="35" viewBox="0 0 35 35" fill="none" xmlns="http://www.w3.org/2000/svg">
<path d="M24.8196 12.6425C24.5094 13.2043 24.3989 13.5963 24.4395 13.7733C24.4516 13.7967 24.4642 13.8156 24.4822 13.838C24.5318 13.8996 24.6099 13.972 24.7171 14.0517C24.9661 14.2369 25.3422 14.4399 25.8409 14.6537C26.5812 14.9712 27.0603 15.6947 27.06 16.4945L27.0597 17.3262C27.0593 18.2204 26.4619 19.0062 25.5951 19.2525C24.9539 19.4347 24.5841 19.6385 24.4843 19.7958C24.4762 19.8209 24.4716 19.843 24.4684 19.8715C24.4595 19.9498 24.4631 20.0557 24.4821 20.1872C24.5261 20.4927 24.6473 20.8999 24.8474 21.4008C25.1446 22.1447 24.9673 22.9926 24.3963 23.5579L23.7662 24.1818C23.1283 24.8133 22.1459 24.9497 21.3577 24.5161C20.7742 24.1951 20.3672 24.0798 20.1845 24.1211C20.1609 24.1331 20.1419 24.1456 20.1193 24.1635C20.0572 24.2126 19.9842 24.2901 19.9038 24.3964C19.7171 24.6433 19.5124 25.0163 19.2968 25.511C18.9767 26.2451 18.2472 26.7203 17.4407 26.72L16.6021 26.7197C15.7005 26.7193 14.9081 26.1268 14.6598 25.2672C14.4761 24.6313 14.2706 24.2645 14.112 24.1655C14.0859 24.1573 14.063 24.1527 14.0335 24.1495C13.9528 24.1408 13.8436 24.1449 13.7081 24.1646C13.394 24.2104 12.9753 24.3346 12.4602 24.5388C11.7371 24.8256 10.9122 24.6748 10.3396 24.1512L9.64301 23.5141C8.96053 22.89 8.79446 21.885 9.24037 21.0775C9.55061 20.5157 9.66114 20.1237 9.62049 19.9467C9.60835 19.9233 9.5958 19.9044 9.57775 19.882C9.52824 19.8204 9.45011 19.748 9.34293 19.6683C9.09394 19.4831 8.71784 19.2801 8.21908 19.0662C7.47882 18.7488 6.99969 18.0253 7 17.2255L7.00033 16.3938C7.00068 15.4996 7.59814 14.7138 8.46489 14.4675C9.10607 14.2853 9.47594 14.0815 9.57571 13.9242C9.58379 13.8991 9.58839 13.877 9.59162 13.8485C9.60048 13.7702 9.59688 13.6643 9.57793 13.5328C9.53391 13.2273 9.41274 12.8201 9.21262 12.3192C8.91542 11.5753 9.09274 10.7274 9.66373 10.1621L10.2938 9.53822C10.9317 8.90668 11.9141 8.77031 12.7023 9.20389C13.2858 9.52486 13.6928 9.64018 13.8755 9.59891C13.8991 9.58687 13.9181 9.57442 13.9408 9.55653C14.0028 9.50742 14.0758 9.42993 14.1562 9.32363C14.3429 9.07669 14.5476 8.7037 14.7632 8.20904C15.0833 7.47488 15.8128 6.99969 16.6193 7L17.4579 7.00032C18.3595 7.00067 19.1519 7.59322 19.4002 8.45283C19.5839 9.08872 19.7894 9.45555 19.948 9.5545C19.9741 9.56273 19.997 9.56733 20.0265 9.57051C20.1072 9.57921 20.2164 9.57512 20.3519 9.55537C20.666 9.50958 21.0847 9.38543 21.5998 9.18118C22.3229 8.89445 23.1478 9.04524 23.7204 9.56882L24.417 10.2059C25.0995 10.83 25.2655 11.835 24.8196 12.6425ZM23.7287 12.05C23.9002 11.7394 23.8363 11.3528 23.5738 11.1128L22.8772 10.4757C22.657 10.2744 22.3397 10.2164 22.0616 10.3266C20.7696 10.8389 19.8789 10.9688 19.2857 10.5987C18.8026 10.2973 18.4651 9.69489 18.2044 8.7926C18.1089 8.46198 17.8042 8.23408 17.4574 8.23395L16.6188 8.23362C16.3086 8.2335 16.028 8.41627 15.9049 8.69864C15.3621 9.94375 14.8291 10.6488 14.1517 10.8017C13.5951 10.9274 12.9268 10.7381 12.099 10.2827C11.7958 10.1159 11.418 10.1684 11.1726 10.4113L10.5425 11.0351C10.3229 11.2525 10.2547 11.5787 10.369 11.8648C10.8728 13.1257 10.9984 13.9979 10.6286 14.581C10.3247 15.0601 9.71727 15.3949 8.80749 15.6534C8.47412 15.7481 8.24433 16.0504 8.24419 16.3943L8.24387 17.226C8.24375 17.5336 8.42803 17.8118 8.71274 17.9339C9.96819 18.4723 10.679 19.001 10.8333 19.6727C10.9582 20.2165 10.7747 20.8672 10.3314 21.67C10.1598 21.9806 10.2237 22.3671 10.4862 22.6072L11.1828 23.2443C11.403 23.4456 11.7203 23.5036 11.9984 23.3934C13.2904 22.8811 14.1811 22.7512 14.7743 23.1213C15.2574 23.4227 15.5949 24.0251 15.8556 24.9274C15.9511 25.258 16.2558 25.4859 16.6026 25.4861L17.4412 25.4864C17.7514 25.4865 18.032 25.3037 18.1551 25.0214C18.6979 23.7762 19.2309 23.0712 19.9083 22.9183C20.4649 22.7926 21.1332 22.9819 21.961 23.4373C22.2642 23.6041 22.642 23.5516 22.8874 23.3087L23.5175 22.6849C23.7371 22.4675 23.8053 22.1413 23.691 21.8552C23.1872 20.5943 23.0616 19.7221 23.4314 19.139C23.7353 18.6599 24.3427 18.3251 25.2525 18.0666C25.5859 17.9719 25.8157 17.6696 25.8158 17.3257L25.8161 16.494C25.8163 16.1864 25.632 15.9081 25.3473 15.7861C24.0918 15.2477 23.381 14.719 23.2267 14.0473C23.1018 13.5035 23.2853 12.8528 23.7287 12.05ZM17.0287 20.5699C14.9678 20.5699 13.2971 18.9129 13.2971 16.869C13.2971 14.8251 14.9678 13.1681 17.0287 13.1681C19.0896 13.1681 20.7603 14.8251 20.7603 16.869C20.7603 18.9129 19.0896 20.5699 17.0287 20.5699ZM17.0287 19.3362C18.4026 19.3362 19.5164 18.2316 19.5164 16.869C19.5164 15.5064 18.4026 14.4017 17.0287 14.4017C15.6547 14.4017 14.5409 15.5064 14.5409 16.869C14.5409 18.2316 15.6547 19.3362 17.0287 19.3362Z" fill="#16DBD5"/>
</svg>
