<svg width="35" height="35" viewBox="0 0 35 35" fill="none" xmlns="http://www.w3.org/2000/svg">
<path d="M6.46713 23.8633C6.46729 23.8626 6.46746 23.8618 6.46763 23.861C6.46757 23.8613 6.46752 23.8616 6.46746 23.8618L6.46713 23.8633ZM6.63128 24.303C6.83722 24.4443 7.18536 24.5333 7.54547 24.5333H26.1497C26.6362 24.5333 26.8303 24.2984 26.6974 24.0201C26.6717 23.9663 26.5478 23.828 26.0605 23.3207C25.4721 22.7081 25.0783 22.2646 24.6541 21.7025C23.1993 19.7747 22.3588 17.5831 22.3588 14.9166C22.3588 12.7278 21.6192 11.0645 20.3838 9.82753C19.9521 9.39527 19.4893 9.04735 19.0283 8.77751C18.8691 8.68431 18.7227 8.60794 18.5933 8.54757C18.5207 8.51373 18.4736 8.494 18.4563 8.48745C18.0473 8.33307 17.8682 7.85763 18.075 7.47528C18.2412 7.16796 18.1972 6.65746 17.9351 6.20518C17.6572 5.72571 17.2171 5.43871 16.7266 5.43871C15.6213 5.43871 14.8648 6.54564 15.2347 7.5735C15.3752 7.96412 15.1544 8.39133 14.7524 8.50633C14.6981 8.52403 14.6604 8.53735 14.6167 8.55389C14.4857 8.60344 14.3373 8.66803 14.1758 8.74902C13.7077 8.98376 13.2376 9.30052 12.7989 9.7095C11.5368 10.8862 10.7781 12.5742 10.7781 14.9166C10.7781 17.6857 9.94482 19.8107 8.46722 21.6485C8.22425 21.9507 7.97041 22.2378 7.68232 22.5421C7.57244 22.6582 7.46226 22.772 7.32627 22.9105C7.2974 22.9399 7.07253 23.1681 7.01217 23.2299C6.79293 23.4542 6.66294 23.5959 6.57073 23.7136C6.52691 23.7695 6.49572 23.8152 6.47645 23.8499C6.42242 24.084 6.47151 24.1934 6.63128 24.303ZM16.7266 4C18.5468 4 19.8658 5.85431 19.5976 7.4428C19.6527 7.47318 19.709 7.50513 19.7663 7.53869C20.3296 7.86843 20.891 8.29045 21.4152 8.81532C22.9111 10.3131 23.8102 12.335 23.8102 14.9166C23.8102 17.2488 24.5382 19.1472 25.8162 20.8407C26.1988 21.3476 26.5595 21.7538 27.1116 22.3286C27.8118 23.0576 27.8797 23.1333 28.0092 23.4045C28.6424 24.7305 27.617 25.972 26.1497 25.972H7.54547C6.91083 25.972 6.27787 25.8102 5.80538 25.4861C5.17403 25.053 4.87675 24.3651 5.04763 23.5636C5.13816 23.1389 5.37212 22.8404 5.96976 22.2288C6.03261 22.1645 6.25915 21.9346 6.28616 21.9071C6.4165 21.7743 6.52097 21.6665 6.62395 21.5577C6.88705 21.2797 7.1158 21.021 7.33224 20.7518C8.61474 19.1567 9.32669 17.341 9.32669 14.9166C9.32669 12.1714 10.255 10.1062 11.8046 8.66148C12.35 8.15297 12.9343 7.75927 13.5206 7.46524C13.5842 7.43338 13.6465 7.40335 13.7074 7.37509C13.5081 5.64497 14.85 4 16.7266 4ZM13.2903 27.7816C13.1662 27.4038 13.3745 26.9978 13.7556 26.8748C14.1367 26.7518 14.5462 26.9583 14.6703 27.336C15.0428 28.4697 15.6452 28.9613 16.5804 28.9613C17.5077 28.9613 18.0812 28.4801 18.4122 27.3571C18.5246 26.9757 18.9275 26.7569 19.3122 26.8683C19.6969 26.9797 19.9177 27.3792 19.8053 27.7605C19.3024 29.4667 18.1903 30.4 16.5804 30.4C14.9783 30.4 13.8474 29.4771 13.2903 27.7816Z" fill="white" fill-opacity="0.85"/>
</svg>
