<svg width="21" height="28" viewBox="0 0 21 28" fill="none" xmlns="http://www.w3.org/2000/svg">
<path fill-rule="evenodd" clip-rule="evenodd" d="M6.268 5.6559L6.645 6.0579C6.737 6.1539 6.884 6.1559 6.9735 6.0629L10 2.99887V18.0044H11.0005V2.86897L14.2535 6.1224C14.342 6.2139 14.4875 6.2119 14.579 6.1169L14.9925 5.7214C15.084 5.6269 15.086 5.4754 14.997 5.3834L11.2302 1.61663C11.2232 1.56531 11.2004 1.51544 11.162 1.4754L10.785 1.0734C10.6925 0.977399 10.5455 0.975399 10.4565 1.0684L6.2625 5.3144C6.173 5.4074 6.176 5.5604 6.268 5.6559ZM2 26.5044V9.5044H8V8.5044H1V27.5044H20V8.5044H13V9.5044H19V26.5044H2Z" fill="white" fill-opacity="0.85"/>
<path d="M6.645 6.0579L6.46263 6.22892L6.4645 6.23088L6.645 6.0579ZM6.268 5.6559L6.45037 5.48487L6.44805 5.48245L6.268 5.6559ZM6.9735 6.0629L6.79562 5.8872L6.79337 5.88954L6.9735 6.0629ZM10 2.99887H10.25V2.39002L9.82214 2.82319L10 2.99887ZM10 18.0044H9.75V18.2544H10V18.0044ZM11.0005 18.0044V18.2544H11.2505V18.0044H11.0005ZM11.0005 2.86897L11.1773 2.69221L10.7505 2.26536V2.86897H11.0005ZM14.2535 6.1224L14.4332 5.94857L14.4303 5.94563L14.2535 6.1224ZM14.579 6.1169L14.4061 5.93608L14.3989 5.94347L14.579 6.1169ZM14.9925 5.7214L15.1654 5.9022L15.1721 5.8953L14.9925 5.7214ZM14.997 5.3834L15.1767 5.20955L15.1738 5.20662L14.997 5.3834ZM11.2302 1.61663L10.9826 1.65066L10.994 1.73395L11.0534 1.7934L11.2302 1.61663ZM11.162 1.4754L10.9796 1.64642L10.9815 1.64837L11.162 1.4754ZM10.785 1.0734L10.9674 0.902368L10.965 0.899935L10.785 1.0734ZM10.4565 1.0684L10.6344 1.24411L10.6371 1.24125L10.4565 1.0684ZM6.2625 5.3144L6.08462 5.1387L6.08237 5.14104L6.2625 5.3144ZM2 9.5044V9.2544H1.75V9.5044H2ZM2 26.5044H1.75V26.7544H2V26.5044ZM8 9.5044V9.7544H8.25V9.5044H8ZM8 8.5044H8.25V8.2544H8V8.5044ZM1 8.5044V8.2544H0.75V8.5044H1ZM1 27.5044H0.75V27.7544H1V27.5044ZM20 27.5044V27.7544H20.25V27.5044H20ZM20 8.5044H20.25V8.2544H20V8.5044ZM13 8.5044V8.2544H12.75V8.5044H13ZM13 9.5044H12.75V9.7544H13V9.5044ZM19 9.5044H19.25V9.2544H19V9.5044ZM19 26.5044V26.7544H19.25V26.5044H19ZM6.82736 5.88688L6.45036 5.48488L6.08564 5.82691L6.46264 6.22891L6.82736 5.88688ZM6.79337 5.88954C6.79526 5.88757 6.79842 5.88522 6.80258 5.88351C6.80656 5.88188 6.81046 5.88125 6.81387 5.8813C6.81727 5.88135 6.82012 5.88207 6.8223 5.88302C6.82462 5.88403 6.82562 5.88505 6.8255 5.88492L6.4645 6.23088C6.6502 6.42464 6.96111 6.4363 7.15363 6.23625L6.79337 5.88954ZM9.82214 2.82319L6.79564 5.88722L7.15136 6.23858L10.1779 3.17455L9.82214 2.82319ZM9.75 2.99887V18.0044H10.25V2.99887H9.75ZM10 18.2544H11.0005V17.7544H10V18.2544ZM11.2505 18.0044V2.86897H10.7505V18.0044H11.2505ZM10.8237 3.04574L14.0767 6.29916L14.4303 5.94563L11.1773 2.69221L10.8237 3.04574ZM14.0738 6.2962C14.2656 6.49454 14.5744 6.4821 14.7591 6.29033L14.3989 5.94347C14.3989 5.94352 14.4 5.94245 14.4024 5.94141C14.4046 5.94043 14.4076 5.93967 14.4111 5.93962C14.4147 5.93956 14.4188 5.94021 14.423 5.94193C14.4275 5.94373 14.431 5.94627 14.4332 5.94859L14.0738 6.2962ZM14.7518 6.29756L15.1653 5.90206L14.8197 5.54073L14.4062 5.93623L14.7518 6.29756ZM15.1721 5.8953C15.3532 5.70828 15.3637 5.40285 15.1767 5.20958L14.8173 5.55722C14.8152 5.55502 14.8138 5.5526 14.8131 5.55071C14.8124 5.54901 14.8125 5.54814 14.8125 5.54814C14.8125 5.54814 14.8124 5.54822 14.8125 5.54817C14.8125 5.54798 14.8127 5.54767 14.8129 5.5475L15.1721 5.8953ZM15.1738 5.20662L11.407 1.43985L11.0534 1.7934L14.8202 5.56018L15.1738 5.20662ZM10.9815 1.64837C10.982 1.64889 10.9824 1.64955 10.9826 1.65066L11.4779 1.58259C11.4639 1.48106 11.4187 1.38199 11.3425 1.30242L10.9815 1.64837ZM10.6026 1.24441L10.9796 1.64641L11.3444 1.30438L10.9674 0.902384L10.6026 1.24441ZM10.6371 1.24125C10.635 1.24343 10.6317 1.24593 10.6273 1.24771C10.6232 1.24942 10.6192 1.25005 10.6158 1.25C10.6085 1.24989 10.6049 1.24678 10.605 1.24686L10.965 0.899935C10.7795 0.707383 10.4685 0.69426 10.2759 0.89555L10.6371 1.24125ZM6.44036 5.49008L10.6344 1.24408L10.2786 0.892715L6.08464 5.13872L6.44036 5.49008ZM6.44805 5.48245C6.44777 5.48217 6.44717 5.48129 6.44715 5.47991C6.44713 5.47871 6.44743 5.48277 6.44263 5.48775L6.08237 5.14104C5.89429 5.33647 5.9082 5.64275 6.08795 5.82935L6.44805 5.48245ZM1.75 9.5044V26.5044H2.25V9.5044H1.75ZM8 9.2544H2V9.7544H8V9.2544ZM7.75 8.5044V9.5044H8.25V8.5044H7.75ZM1 8.7544H8V8.2544H1V8.7544ZM1.25 27.5044V8.5044H0.75V27.5044H1.25ZM20 27.2544H1V27.7544H20V27.2544ZM19.75 8.5044V27.5044H20.25V8.5044H19.75ZM13 8.7544H20V8.2544H13V8.7544ZM13.25 9.5044V8.5044H12.75V9.5044H13.25ZM19 9.2544H13V9.7544H19V9.2544ZM19.25 26.5044V9.5044H18.75V26.5044H19.25ZM2 26.7544H19V26.2544H2V26.7544Z" fill="#DADADA"/>
</svg>
