<svg width="31" height="35" viewBox="0 0 31 35" fill="none" xmlns="http://www.w3.org/2000/svg">
<path d="M13.759 5.26409C14.9168 4.66517 16.3403 5.11936 16.9385 6.27856L19.2991 10.853C19.433 11.1124 19.6831 11.2916 19.9715 11.3347L24.5885 12.0241C25.1042 12.1012 25.58 12.3471 25.9414 12.7234C26.8446 13.664 26.8152 15.1596 25.8757 16.0639L22.3347 19.4724C22.1185 19.6805 22.019 19.9822 22.0688 20.2784L22.8673 25.0239C22.9559 25.5504 22.8638 26.0914 22.6059 26.5587C21.9758 27.7008 20.5402 28.1152 19.3995 27.4843L15.236 25.1816C14.9684 25.0336 14.6443 25.0304 14.3738 25.1732L9.91559 27.5272C9.43631 27.7803 8.88463 27.8605 8.35325 27.7543C7.07524 27.4991 6.24589 26.2549 6.50084 24.9753L7.43712 20.2762C7.49727 19.9744 7.40068 19.6625 7.1805 19.4477L3.71314 16.0647C3.34202 15.7026 3.10027 15.2283 3.0252 14.715C2.83641 13.424 3.72867 12.2242 5.01812 12.0351L9.79575 11.3348C10.0898 11.2917 10.3442 11.1071 10.4767 10.8407L12.7298 6.30999C12.9532 5.86077 13.3137 5.49444 13.759 5.26409ZM11.7766 11.4887C11.4321 12.1814 10.7707 12.6612 10.0061 12.7733L5.22848 13.4737C4.73253 13.5464 4.38936 14.0078 4.46197 14.5044C4.49084 14.7018 4.58382 14.8842 4.72656 15.0235L8.19392 18.4065C8.76641 18.965 9.01753 19.7758 8.86115 20.5607L7.92486 25.2597C7.82681 25.7519 8.14579 26.2304 8.63733 26.3286C8.84171 26.3694 9.05389 26.3386 9.23823 26.2412L13.6965 23.8872C14.3997 23.5159 15.2423 23.5241 15.9382 23.909L20.1017 26.2117C20.5404 26.4544 21.0925 26.295 21.3349 25.8557C21.4341 25.676 21.4695 25.4679 21.4354 25.2654L20.6369 20.5199C20.5073 19.7499 20.7661 18.9655 21.3284 18.4243L24.8694 15.0158C25.2307 14.668 25.242 14.0928 24.8946 13.731C24.7556 13.5863 24.5726 13.4917 24.3742 13.4621L19.7573 12.7726C19.0075 12.6606 18.357 12.1948 18.009 11.5204L15.6484 6.94591C15.4184 6.50006 14.8708 6.32537 14.4255 6.55573C14.2543 6.64432 14.1156 6.78522 14.0297 6.958L11.7766 11.4887Z" fill="#16DBD5"/>
</svg>
