<svg width="85" height="85" viewBox="0 0 85 85" fill="none" xmlns="http://www.w3.org/2000/svg">
<path d="M48.4313 45.6357C49.9193 46.954 50.8577 48.8822 50.8577 51.0303V57.285C50.8577 58.0075 50.2739 58.5932 49.5537 58.5932C48.8336 58.5932 48.2498 58.0075 48.2498 57.285V51.0303C48.2498 48.5017 46.2065 46.4519 43.6859 46.4519H40.9471C38.4265 46.4519 36.3832 48.5017 36.3832 51.0303V57.7108C36.3832 58.4333 35.7994 59.019 35.0793 59.019C34.3591 59.019 33.7753 58.4333 33.7753 57.7108V51.0303C33.7753 48.9019 34.6966 46.9893 36.1609 45.6721L36.12 45.0199C35.9688 42.6076 33.9745 40.7288 31.5652 40.7288H28.3713C28.2758 40.7288 28.1803 40.7318 28.0849 40.7378C25.5694 40.8965 23.6583 43.0709 23.8164 45.5945L23.8398 45.9678C25.2209 47.2792 26.0824 49.1356 26.0824 51.1938V57.4485C26.0824 58.171 25.4986 58.7567 24.7784 58.7567C24.0583 58.7567 23.4745 58.171 23.4745 57.4485V51.1938C23.4745 48.6652 21.4312 46.6154 18.9106 46.6154H16.1718C13.6512 46.6154 11.6079 48.6652 11.6079 51.1938V57.8744C11.6079 58.5968 11.0241 59.1825 10.304 59.1825C9.5838 59.1825 9 58.5968 9 57.8744V51.1938C9 47.2203 12.2109 43.9991 16.1718 43.9991H18.9106C19.7321 43.9991 20.5213 44.1377 21.2564 44.3928C21.6812 41.0364 24.431 38.3468 27.9213 38.1267C28.0711 38.1172 28.2212 38.1125 28.3713 38.1125H31.5652C35.1338 38.1125 38.1231 40.7356 38.6536 44.2113C39.3738 43.9677 40.145 43.8356 40.9471 43.8356H43.6859C44.4579 43.8356 45.2014 43.958 45.8981 44.1844C46.4081 40.9257 49.1158 38.3423 52.5336 38.1267C52.6834 38.1172 52.8335 38.1125 52.9836 38.1125H56.1774C59.7994 38.1125 62.8244 40.8145 63.288 44.3674C64.0018 44.1285 64.7655 43.9991 65.5594 43.9991H68.2982C72.2591 43.9991 75.47 47.2203 75.47 51.1938V57.4485C75.47 58.171 74.8862 58.7567 74.166 58.7567C73.4459 58.7567 72.8621 58.171 72.8621 57.4485V51.1938C72.8621 48.6652 70.8188 46.6154 68.2982 46.6154H65.5594C63.0388 46.6154 60.9955 48.6652 60.9955 51.1938V57.8744C60.9955 58.5968 60.4117 59.1825 59.6916 59.1825C58.9714 59.1825 58.3876 58.5968 58.3876 57.8744V51.1938C58.3876 49.0607 59.3129 47.1444 60.7829 45.8269L60.7323 45.0199C60.5811 42.6076 58.5868 40.7288 56.1774 40.7288H52.9836C52.8881 40.7288 52.7926 40.7318 52.6972 40.7378C50.1817 40.8965 48.2706 43.0709 48.4287 45.5945L48.4313 45.6357ZM17.6388 42.5275C14.4881 42.5275 11.9339 39.9652 11.9339 36.8044C11.9339 33.6436 14.4881 31.0813 17.6388 31.0813C20.7894 31.0813 23.3436 33.6436 23.3436 36.8044C23.3436 39.9652 20.7894 42.5275 17.6388 42.5275ZM17.6388 39.9112C19.3491 39.9112 20.7357 38.5202 20.7357 36.8044C20.7357 35.0885 19.3491 33.6976 17.6388 33.6976C15.9284 33.6976 14.5418 35.0885 14.5418 36.8044C14.5418 38.5202 15.9284 39.9112 17.6388 39.9112ZM42.2511 42.5275C39.1004 42.5275 36.5462 39.9652 36.5462 36.8044C36.5462 33.6436 39.1004 31.0813 42.2511 31.0813C45.4017 31.0813 47.9559 33.6436 47.9559 36.8044C47.9559 39.9652 45.4017 42.5275 42.2511 42.5275ZM42.2511 39.9112C43.9614 39.9112 45.348 38.5202 45.348 36.8044C45.348 35.0885 43.9614 33.6976 42.2511 33.6976C40.5407 33.6976 39.1541 35.0885 39.1541 36.8044C39.1541 38.5202 40.5407 39.9112 42.2511 39.9112ZM67.0263 42.5275C63.8757 42.5275 61.3215 39.9652 61.3215 36.8044C61.3215 33.6436 63.8757 31.0813 67.0263 31.0813C70.177 31.0813 72.7312 33.6436 72.7312 36.8044C72.7312 39.9652 70.177 42.5275 67.0263 42.5275ZM67.0263 39.9112C68.7367 39.9112 70.1233 38.5202 70.1233 36.8044C70.1233 35.0885 68.7367 33.6976 67.0263 33.6976C65.316 33.6976 63.9294 35.0885 63.9294 36.8044C63.9294 38.5202 65.316 39.9112 67.0263 39.9112ZM54.6387 36.6409C51.488 36.6409 48.9339 34.0786 48.9339 30.9178C48.9339 27.757 51.488 25.1947 54.6387 25.1947C57.7894 25.1947 60.3435 27.757 60.3435 30.9178C60.3435 34.0786 57.7894 36.6409 54.6387 36.6409ZM54.6387 34.0246C56.3491 34.0246 57.7356 32.6336 57.7356 30.9178C57.7356 29.202 56.3491 27.811 54.6387 27.811C52.9283 27.811 51.5418 29.202 51.5418 30.9178C51.5418 32.6336 52.9283 34.0246 54.6387 34.0246ZM42.2511 29.4461C39.1004 29.4461 36.5462 26.8838 36.5462 23.7231C36.5462 20.5623 39.1004 18 42.2511 18C45.4017 18 47.9559 20.5623 47.9559 23.7231C47.9559 26.8838 45.4017 29.4461 42.2511 29.4461ZM42.2511 26.8299C43.9614 26.8299 45.348 25.4389 45.348 23.7231C45.348 22.0072 43.9614 20.6163 42.2511 20.6163C40.5407 20.6163 39.1541 22.0072 39.1541 23.7231C39.1541 25.4389 40.5407 26.8299 42.2511 26.8299ZM29.8634 36.6409C26.7127 36.6409 24.1586 34.0786 24.1586 30.9178C24.1586 27.757 26.7127 25.1947 29.8634 25.1947C33.0141 25.1947 35.5682 27.757 35.5682 30.9178C35.5682 34.0786 33.0141 36.6409 29.8634 36.6409ZM29.8634 34.0246C31.5738 34.0246 32.9603 32.6336 32.9603 30.9178C32.9603 29.202 31.5738 27.811 29.8634 27.811C28.153 27.811 26.7665 29.202 26.7665 30.9178C26.7665 32.6336 28.153 34.0246 29.8634 34.0246Z" fill="white" fill-opacity="0.85"/>
</svg>
