<svg width="85" height="85" viewBox="0 0 85 85" fill="none" xmlns="http://www.w3.org/2000/svg">
<path d="M32.3597 53.137V58.6789C32.3597 59.7101 31.2154 60.3305 30.3503 59.7682L28.4006 58.5011L26.5589 59.7532C25.6955 60.3402 24.5269 59.7223 24.5269 58.6789V53.137H23.2264C22.3287 53.137 21.6009 53.8642 21.6009 54.7613V59.1267C21.6009 60.0238 22.3287 60.751 23.2264 60.751H61.6638C62.382 60.751 62.9642 61.3328 62.9642 62.0505C62.9642 62.7682 62.382 63.35 61.6638 63.35H23.2264C20.8922 63.35 19 61.4591 19 59.1267V54.7613C19 52.4289 20.8922 50.538 23.2264 50.538H61.6638C62.382 50.538 62.9642 51.1198 62.9642 51.8375C62.9642 52.5552 62.382 53.137 61.6638 53.137H32.3597ZM29.7589 53.137H27.1278V56.2229L27.6527 55.866C28.086 55.5714 28.654 55.5655 29.0933 55.851L29.7589 56.2835V53.137ZM60.3193 38.0304V43.7347C60.3193 44.766 59.1749 45.3863 58.3098 44.8241L56.3601 43.5569L54.5184 44.8091C53.6551 45.3961 52.4864 44.7782 52.4864 43.7347V38.0304H22.5762C21.858 38.0304 21.2758 37.4486 21.2758 36.7309C21.2758 36.0132 21.858 35.4314 22.5762 35.4314H61.0136C63.3478 35.4314 65.24 37.3223 65.24 39.6548V44.0201C65.24 46.3526 63.3478 48.2434 61.0136 48.2434H22.5762C21.858 48.2434 21.2758 47.6616 21.2758 46.9439C21.2758 46.2263 21.858 45.6445 22.5762 45.6445H61.0136C61.9113 45.6445 62.6391 44.9172 62.6391 44.0201V39.6548C62.6391 38.7577 61.9113 38.0304 61.0136 38.0304H60.3193ZM57.7184 38.0304H55.0873V41.2788L55.6123 40.9218C56.0456 40.6272 56.6135 40.6213 57.0529 40.9069L57.7184 41.3394V38.0304ZM62.1514 20C62.8697 20 63.4519 20.5818 63.4519 21.2995C63.4519 22.0172 62.8697 22.599 62.1514 22.599H23.7141C22.8163 22.599 22.0886 23.3262 22.0886 24.2233V28.5887C22.0886 29.4858 22.8163 30.213 23.7141 30.213H62.1514C62.8697 30.213 63.4519 30.7948 63.4519 31.5125C63.4519 32.2302 62.8697 32.812 62.1514 32.812H23.7141C21.3799 32.812 19.4877 30.9211 19.4877 28.5887V24.2233C19.4877 21.8909 21.3799 20 23.7141 20H62.1514Z" fill="white" fill-opacity="0.85"/>
</svg>
