<svg width="85" height="85" viewBox="0 0 85 85" fill="none" xmlns="http://www.w3.org/2000/svg">
<path d="M32.7951 23.3673V20.2566C32.7951 17.9058 34.6955 16 37.0398 16H47.8047C50.149 16 52.0494 17.9058 52.0494 20.2566V23.3673H65.6653C68.0096 23.3673 69.91 25.273 69.91 27.6239V45.0417C69.91 46.8884 68.7374 48.4604 67.0982 49.0498V64.4859C67.0982 66.8367 65.1978 68.7425 62.8535 68.7425H22.1833C19.839 68.7425 17.9386 66.8367 17.9386 64.4859V49.0931C16.2334 48.5407 15 46.9357 15 45.0417V27.6239C15 25.273 16.9004 23.3673 19.2447 23.3673H32.7951ZM35.4072 23.3673H49.4373V20.2566C49.4373 19.3525 48.7064 18.6195 47.8047 18.6195H37.0398C36.1381 18.6195 35.4072 19.3525 35.4072 20.2566V23.3673ZM48.3045 46.6789H65.6653C66.567 46.6789 67.2979 45.9459 67.2979 45.0417V27.6239C67.2979 26.7197 66.567 25.9867 65.6653 25.9867H19.2447C18.343 25.9867 17.6121 26.7197 17.6121 27.6239V45.0417C17.6121 45.9459 18.343 46.6789 19.2447 46.6789H36.2235V44.8142C36.2235 43.3675 37.393 42.1947 38.8356 42.1947H45.6924C47.135 42.1947 48.3045 43.3675 48.3045 44.8142V46.6789ZM48.3045 49.2984V51.3629C48.3045 52.8096 47.135 53.9823 45.6924 53.9823H38.8356C37.393 53.9823 36.2235 52.8096 36.2235 51.3629V49.2984H20.5508V64.4859C20.5508 65.39 21.2817 66.123 22.1833 66.123H62.8535C63.7551 66.123 64.4861 65.39 64.4861 64.4859V49.2984H48.3045ZM38.8356 44.8142V51.3629H45.6924V44.8142H38.8356Z" fill="white" fill-opacity="0.85"/>
</svg>
