<svg width="85" height="85" viewBox="0 0 85 85" fill="none" xmlns="http://www.w3.org/2000/svg">
<path d="M67.3635 29.5212H68.6357C69.2939 29.5212 69.8274 30.0533 69.8274 30.7098C69.8274 31.3663 69.2939 31.8985 68.6357 31.8985H67.9877C68.0076 32.1197 68.0177 32.3436 68.0177 32.57C68.0177 36.8256 64.4313 40.2249 60.0663 40.2249C55.7012 40.2249 52.1148 36.8256 52.1148 32.57C52.1148 28.3144 55.7012 24.915 60.0663 24.915C63.3172 24.915 66.1363 26.8006 67.3635 29.5212ZM64.6117 29.5212C63.603 28.1726 61.9431 27.2924 60.0663 27.2924C56.9911 27.2924 54.4983 29.6553 54.4983 32.57C54.4983 35.4847 56.9911 37.8476 60.0663 37.8476C63.1414 37.8476 65.6343 35.4847 65.6343 32.57C65.6343 32.3425 65.6191 32.1184 65.5896 31.8985H65.0226V32.2201C65.0226 33.7219 63.802 34.9393 62.2964 34.9393H62.1853C61.3934 34.9393 60.6838 34.5882 60.2043 34.0337C59.7247 34.5882 59.0151 34.9393 58.2233 34.9393H58.1081C56.6081 34.9393 55.3921 33.7264 55.3921 32.2302C55.3921 30.734 56.6081 29.5212 58.1081 29.5212H64.6117ZM46.9922 26.0722C47.3866 25.348 47.6093 24.5261 47.6093 23.6549C47.6093 20.7402 45.1164 18.3773 42.0413 18.3773C38.9662 18.3773 36.4733 20.7402 36.4733 23.6549C36.4733 26.5697 38.9662 28.9326 42.0413 28.9326C43.9142 28.9326 45.5711 28.0561 46.5804 26.7123C46.1916 27.0226 45.6325 27.0669 45.1907 26.7833L42.6809 25.1718C42.1274 24.8164 41.9676 24.0809 42.3239 23.5289C42.6801 22.9769 43.4176 22.8174 43.971 23.1728L46.4808 24.7843C46.9216 25.0673 47.1127 25.5916 46.9922 26.0722ZM36.7712 47.7027V47.0596C36.7712 46.4372 36.7744 46.1474 36.7903 45.7794C36.8509 44.3781 37.0855 43.3223 37.6698 42.4409C38.441 41.2774 39.7141 40.665 41.438 40.665C44.4002 40.665 45.9426 42.5205 45.724 45.6617C45.6785 46.3166 45.1092 46.8107 44.4526 46.7652C43.7961 46.7198 43.3007 46.152 43.3463 45.4971C43.4734 43.6707 42.9511 43.0423 41.438 43.0423C39.7559 43.0423 39.2621 43.7874 39.1716 45.8818C39.1576 46.2045 39.1547 46.4711 39.1547 47.0596V59.0459C39.1547 59.109 39.1498 59.171 39.1403 59.2315C39.8132 60.2584 40.2045 61.4856 40.2045 62.804V67.5088C40.2045 68.1653 39.6709 68.6975 39.0128 68.6975C38.3546 68.6975 37.821 68.1653 37.821 67.5088V62.804C37.821 60.5063 35.9536 58.6436 33.65 58.6436H31.2595C28.9559 58.6436 27.0884 60.5063 27.0884 62.804V67.5538C27.0884 68.2103 26.5548 68.7425 25.8967 68.7425C25.2385 68.7425 24.7049 68.2103 24.7049 67.5538V62.804C24.7049 59.1933 27.6395 56.2663 31.2595 56.2663H33.65C34.78 56.2663 35.8432 56.5515 36.7712 57.0537V53.2403C35.8383 54.5385 34.2699 55.3748 32.5257 55.3748C29.7302 55.3748 27.3863 53.2265 27.3863 50.4715C27.3863 48.5772 28.4945 46.9697 30.0956 46.1502C28.7111 44.9545 26.9053 44.231 24.93 44.231H21.2787C16.9183 44.231 13.3835 47.7567 13.3835 52.1059V63.5194C13.3835 64.1759 12.8499 64.7081 12.1917 64.7081C11.5336 64.7081 11 64.1759 11 63.5194L11 52.1059C11 46.4437 15.6019 41.8536 21.2787 41.8536H24.93C26.5605 41.8536 28.1023 42.2323 29.4719 42.9062V42.8937C29.4719 37.2315 34.0738 32.6414 39.7506 32.6414H44.2136C49.7389 32.6414 54.2459 36.9898 54.4826 42.4427C55.5258 41.9787 56.6649 41.6815 57.8687 41.5877C58.1352 41.5669 58.4025 41.5565 58.6698 41.5565H62.1338C67.8106 41.5565 72.4125 46.1466 72.4125 51.8088V62.5284C72.4125 63.1849 71.8789 63.7171 71.2208 63.7171C70.5626 63.7171 70.029 63.1849 70.029 62.5284V51.8088C70.029 47.4596 66.4942 43.9338 62.1338 43.9338H58.6698C58.4645 43.9338 58.2592 43.9418 58.0545 43.9578C56.0291 44.1157 54.2421 45.0227 52.9455 46.3851C54.3218 47.2555 55.2431 48.7443 55.2431 50.4715C55.2431 53.2265 52.8993 55.3748 50.1038 55.3748C47.3083 55.3748 44.9644 53.2265 44.9644 50.4715C44.9644 47.7165 47.3083 45.5682 50.1038 45.5682C50.238 45.5682 50.3713 45.5732 50.5032 45.5829C50.9737 44.9694 51.5127 44.4094 52.1099 43.9147C52.1092 43.8982 52.1089 43.8817 52.1089 43.865V42.8937C52.1089 38.5445 48.5741 35.0188 44.2136 35.0188H39.7506C35.3902 35.0188 31.8553 38.5445 31.8553 42.8937V44.5298C32.2131 44.8554 32.5477 45.2058 32.8564 45.5783C34.467 45.6766 35.8977 46.4872 36.7712 47.7027ZM15.9003 34.1247C15.4021 34.1746 14.8867 34.2167 14.354 34.251C13.6972 34.2932 13.1304 33.7964 13.088 33.1413C13.0456 32.4862 13.5437 31.9208 14.2006 31.8786C14.7688 31.842 15.312 31.7967 15.8306 31.7429C16.3292 27.9551 19.6926 25.0636 23.7184 25.0636C28.0834 25.0636 31.6698 28.463 31.6698 32.7186C31.6698 36.9742 28.0834 40.3735 23.7184 40.3735C19.8466 40.3735 16.5874 37.699 15.9003 34.1247ZM18.2686 33.8053C18.7971 36.1987 21.0363 37.9962 23.7184 37.9962C26.7935 37.9962 29.2864 35.6333 29.2864 32.7186C29.2864 30.8172 28.2255 29.1506 26.6343 28.2217C26.2363 29.8705 25.1123 31.2112 23.3325 32.1882C22.0177 32.9099 20.3315 33.4458 18.2686 33.8053ZM18.3306 31.3819C22.0518 30.6651 23.994 29.3338 24.352 27.4748C24.144 27.4524 23.9326 27.441 23.7184 27.441C21.1305 27.441 18.955 29.1144 18.3306 31.3819ZM44.6665 67.5538C44.6665 68.2103 44.1329 68.7425 43.4747 68.7425C42.8166 68.7425 42.283 68.2103 42.283 67.5538V62.804C42.283 59.1933 45.2176 56.2663 48.8375 56.2663H51.228C54.848 56.2663 57.7826 59.1933 57.7826 62.804V67.5088C57.7826 68.1653 57.249 68.6975 56.5908 68.6975C55.9326 68.6975 55.3991 68.1653 55.3991 67.5088V62.804C55.3991 60.5063 53.5316 58.6436 51.228 58.6436H48.8375C46.5339 58.6436 44.6665 60.5063 44.6665 62.804V67.5538ZM32.5257 52.9974C34.0477 52.9974 35.2816 51.8665 35.2816 50.4715C35.2816 49.0765 34.0477 47.9456 32.5257 47.9456C31.0037 47.9456 29.7698 49.0765 29.7698 50.4715C29.7698 51.8665 31.0037 52.9974 32.5257 52.9974ZM50.1038 52.9974C51.6258 52.9974 52.8596 51.8665 52.8596 50.4715C52.8596 49.0765 51.6258 47.9456 50.1038 47.9456C48.5817 47.9456 47.3479 49.0765 47.3479 50.4715C47.3479 51.8665 48.5817 52.9974 50.1038 52.9974ZM42.0413 31.3099C37.6762 31.3099 34.0898 27.9105 34.0898 23.6549C34.0898 19.3994 37.6762 16 42.0413 16C46.4063 16 49.9928 19.3994 49.9928 23.6549C49.9928 27.9105 46.4063 31.3099 42.0413 31.3099ZM38.906 26.6345C38.3525 26.9899 37.6151 26.8305 37.2588 26.2785C36.9026 25.7265 37.0624 24.9909 37.6158 24.6356L40.1257 23.0241C40.6791 22.6687 41.4166 22.8281 41.7728 23.3801C42.1291 23.9321 41.9692 24.6677 41.4158 25.023L38.906 26.6345ZM61.9537 31.8985V32.331C61.9537 32.4585 62.0574 32.5619 62.1853 32.5619H62.2964C62.4857 32.5619 62.6391 32.4089 62.6391 32.2201V31.8985H61.9537ZM58.1081 31.8985C57.9244 31.8985 57.7755 32.047 57.7755 32.2302C57.7755 32.4134 57.9244 32.5619 58.1081 32.5619H58.2233C58.3511 32.5619 58.4548 32.4585 58.4548 32.331V31.8985H58.1081Z" fill="white" fill-opacity="0.85"/>
</svg>
