<svg width="85" height="85" viewBox="0 0 85 85" fill="none" xmlns="http://www.w3.org/2000/svg">
<path d="M43.5142 60.3048C44.8922 59.1059 46.7259 57.4289 48.733 55.5304C53.2712 51.2378 57.9253 46.5549 61.1783 42.9511C64.1063 39.7075 64.8584 35.7858 63.7821 31.7171C62.8992 28.3792 60.7761 25.2564 58.8157 24.0167C56.5355 22.5747 54.5201 21.8897 52.2555 21.9852C49.4051 22.1053 46.2175 23.5066 42.5104 26.5235C41.9726 26.9611 41.1879 26.8995 40.7243 26.3834C37.7338 23.0539 34.3787 21.5158 31.0113 21.6194C28.0364 21.7109 25.17 23.1122 23.1054 25.3834C20.433 28.3232 19.2947 31.8581 19.6743 36.0803C19.739 36.7993 19.211 37.4348 18.495 37.4997C17.779 37.5647 17.1462 37.0344 17.0815 36.3154C16.6372 31.3735 18.0097 27.1112 21.1827 23.6207C23.7086 20.8421 27.2312 19.12 30.9315 19.0061C34.7592 18.8884 38.5224 20.4653 41.8174 23.7471C45.554 20.9033 48.9517 19.5077 52.1463 19.373C55.0094 19.2523 57.5131 20.1033 60.2029 21.8043C62.75 23.4151 65.2539 27.0981 66.2982 31.0458C67.5902 35.93 66.6622 40.7687 63.1071 44.707C59.8021 48.3683 55.102 53.0975 50.5179 57.4336C48.4865 59.3551 46.6272 61.0556 45.2189 62.2808C43.1744 64.0597 42.5824 64.5175 41.8769 64.5175C41.0594 64.5175 40.1777 63.7625 37.0602 60.8015C34.6922 58.5525 31.2773 55.1864 26.8122 50.7005C26.304 50.1899 26.3042 49.3622 26.8126 48.8518C27.321 48.3414 28.1452 48.3416 28.6534 48.8522C33.1027 53.3222 36.5023 56.6731 38.849 58.9021C40.0128 60.0074 40.9142 60.8335 41.5477 61.3759C41.673 61.4832 41.7868 61.5785 41.8884 61.6614C42.2866 61.3532 42.8382 60.893 43.5142 60.3048ZM53.3721 42.2485C54.091 42.2485 54.6738 42.8337 54.6738 43.5557C54.6738 44.2776 54.091 44.8629 53.3721 44.8629H47.2564C46.7927 44.8629 46.364 44.6152 46.131 44.2127L44.775 41.8702L41.0472 48.8757C40.4882 49.9262 38.9356 49.7398 38.6389 48.5865L35.596 36.7584L32.4483 44.8656C32.0678 45.8457 30.749 45.9959 30.1596 45.1263L27.7426 41.5606L26.0258 44.2594C25.7867 44.6354 25.3731 44.8629 24.9289 44.8629H19.3243C18.6054 44.8629 18.0227 44.2776 18.0227 43.5557C18.0227 42.8337 18.6054 42.2485 19.3243 42.2485H24.2158L26.6111 38.4829C27.1141 37.6921 28.2583 37.6753 28.7841 38.451L30.9207 41.6032L34.6351 32.0365C35.094 30.8544 36.7921 30.9559 37.1081 32.1844L40.3245 44.6868L43.5792 38.5705C44.0596 37.6676 45.3402 37.6446 45.8525 38.5296L48.0053 42.2485H53.3721Z" fill="white" fill-opacity="0.85"/>
</svg>
