<svg width="35" height="35" viewBox="0 0 35 35" fill="none" xmlns="http://www.w3.org/2000/svg">
<path d="M28.1628 16.3501V9.53146C28.1628 8.80631 28.0878 8.54335 27.9469 8.27825C27.8059 8.01314 27.5992 7.80509 27.3357 7.66331C27.0722 7.52153 26.8108 7.44603 26.0901 7.44603H7.50989C6.78917 7.44603 6.52782 7.52153 6.26433 7.66331C6.00085 7.80509 5.79406 8.01314 5.65315 8.27825C5.51224 8.54335 5.43719 8.80631 5.43719 9.53146V21.364H6.16731L11.7435 16.6721C12.6869 15.8784 14.0769 15.9547 14.9284 16.8308L20.6408 12.1346C21.5426 11.3932 22.853 11.4319 23.7095 12.2252L28.1628 16.3501ZM28.1628 18.2853C28.1174 18.2591 28.0742 18.2274 28.0341 18.1902L22.7333 13.2803C22.4039 12.9752 21.8999 12.9603 21.553 13.2455L15.8882 17.9027L17.6495 19.8757C17.9149 20.1729 17.8894 20.6294 17.5926 20.8952C17.2958 21.1609 16.84 21.1354 16.5746 20.8382L13.9224 17.8672C13.5979 17.5037 13.0437 17.4641 12.671 17.7777L8.40878 21.364H28.1628V18.2853ZM6.42797 22.81H5.43719V24.0685C5.43719 24.7937 5.51224 25.0566 5.65315 25.3218C5.79406 25.5869 6.00085 25.7949 6.26433 25.9367C6.52782 26.0785 6.78917 26.154 7.50989 26.154H26.0901C26.8108 26.154 27.0722 26.0785 27.3357 25.9367C27.5992 25.7949 27.8059 25.5869 27.9469 25.3218C28.0878 25.0566 28.1628 24.7937 28.1628 24.0685V22.81H6.42797C6.42797 22.81 6.42797 22.81 6.42797 22.81ZM7.50989 6H26.0901C26.9642 6 27.4773 6.0997 28.0134 6.38818C28.5274 6.66473 28.9393 7.0792 29.2142 7.5963C29.5009 8.13571 29.6 8.65203 29.6 9.53146V24.0685C29.6 24.948 29.5009 25.4643 29.2142 26.0037C28.9393 26.5208 28.5274 26.9353 28.0134 27.2118C27.4773 27.5003 26.9642 27.6 26.0901 27.6H7.50989C6.63583 27.6 6.12267 27.5003 5.58655 27.2118C5.07261 26.9353 4.66067 26.5208 4.38581 26.0037C4.0991 25.4643 4 24.948 4 24.0685V9.53146C4 8.65203 4.0991 8.13571 4.38581 7.5963C4.66067 7.0792 5.07261 6.66473 5.58655 6.38818C6.12267 6.0997 6.63583 6 7.50989 6ZM9.92842 15.0377C8.24172 15.0377 6.87439 13.6619 6.87439 11.9649C6.87439 10.2678 8.24172 8.89205 9.92842 8.89205C11.6151 8.89205 12.9825 10.2678 12.9825 11.9649C12.9825 13.6619 11.6151 15.0377 9.92842 15.0377ZM9.92842 13.5916C10.8214 13.5916 11.5453 12.8633 11.5453 11.9649C11.5453 11.0664 10.8214 10.3381 9.92842 10.3381C9.03546 10.3381 8.31158 11.0664 8.31158 11.9649C8.31158 12.8633 9.03546 13.5916 9.92842 13.5916Z" fill="white" fill-opacity="0.85"/>
</svg>
