<svg width="35" height="35" viewBox="0 0 35 35" fill="none" xmlns="http://www.w3.org/2000/svg">
<path d="M13.4468 20.9335L6.24825 27.9901C5.96193 28.2707 5.49859 28.2699 5.21335 27.9881C4.92812 27.7064 4.929 27.2505 5.21532 26.9698L12.4115 19.9155C11.0412 18.3356 10.214 16.2859 10.214 14.046C10.214 9.05005 14.3298 5 19.407 5C24.4841 5 28.6 9.05005 28.6 14.046C28.6 19.042 24.4841 23.0921 19.407 23.0921C17.1329 23.0921 15.0517 22.2796 13.4468 20.9335ZM19.407 21.6519C23.6758 21.6519 27.1364 18.2466 27.1364 14.046C27.1364 9.84543 23.6758 6.44017 19.407 6.44017C15.1381 6.44017 11.6775 9.84543 11.6775 14.046C11.6775 18.2466 15.1381 21.6519 19.407 21.6519Z" fill="white" fill-opacity="0.85"/>
</svg>
