<svg width="85" height="85" viewBox="0 0 85 85" fill="none" xmlns="http://www.w3.org/2000/svg">
<path d="M56.2288 28.7523H45.0799C44.3354 28.7523 43.6293 28.7496 42.8815 28.7437V40.1438H56.2288V28.7523ZM58.9667 28.7523V40.1438H71.2871V30.3779C71.2871 29.4801 70.521 28.7523 69.5759 28.7523H58.9667ZM40.1436 28.7115C39.4919 28.7019 38.7773 28.6905 37.9728 28.6771C32.0737 28.5789 29.4027 28.5666 26.9675 28.6954V40.1438H40.1436V28.7115ZM24.2296 28.9081C21.3042 29.2262 19.1696 29.8189 17.6346 30.7625C14.176 32.8884 12.5244 35.5296 11.9666 40.1438H24.2296V28.9081ZM71.2871 42.7447H11.7708C11.7509 43.2834 11.7407 43.8447 11.7397 44.4301C11.7379 45.5091 11.7374 47.4004 11.7384 50.1036C11.7387 51.0011 12.5047 51.7286 13.4496 51.7286H18.6694C19.3742 49.6294 21.4438 48.109 23.8873 48.109C26.3139 48.109 28.3719 49.6084 29.0905 51.6852H54.9614C55.6799 49.6084 57.7379 48.109 60.1645 48.109C62.608 48.109 64.6777 49.6294 65.3824 51.7286H69.5759C70.521 51.7286 71.2871 51.0008 71.2871 50.103V42.7447ZM54.7848 54.2861H29.267C28.7865 56.6927 26.5606 58.5125 23.8873 58.5125C21.2302 58.5125 19.015 56.7146 18.5165 54.3295H13.4496C10.993 54.3295 9.00128 52.4381 9.00047 50.1044C8.99953 47.3997 8.99999 45.507 9.00185 44.4259C9.01593 36.222 10.831 31.8466 16.1472 28.5789C18.3689 27.2132 21.3313 26.4941 25.3869 26.1903C28.4223 25.963 30.9151 25.9583 38.0208 26.0767C41.2463 26.1304 43.0164 26.1515 45.0799 26.1515H69.5759C72.0331 26.1515 74.025 28.0437 74.025 30.3779V50.103C74.025 52.4372 72.0331 54.3295 69.5759 54.3295H65.5353C65.0368 56.7146 62.8217 58.5125 60.1645 58.5125C57.4912 58.5125 55.2654 56.6927 54.7848 54.2861ZM60.1645 55.9116C61.6766 55.9116 62.9024 54.7472 62.9024 53.3107C62.9024 51.8743 61.6766 50.7099 60.1645 50.7099C58.6524 50.7099 57.4266 51.8743 57.4266 53.3107C57.4266 54.7472 58.6524 55.9116 60.1645 55.9116ZM23.8873 55.9116C25.3994 55.9116 26.6252 54.7472 26.6252 53.3107C26.6252 51.8743 25.3994 50.7099 23.8873 50.7099C22.3752 50.7099 21.1494 51.8743 21.1494 53.3107C21.1494 54.7472 22.3752 55.9116 23.8873 55.9116Z" fill="white" fill-opacity="0.85"/>
</svg>
